<?xml version="1.0" encoding="UTF-8" standalone="no"?>
<svg width="250px" height="192px" version="1.1" xmlns="http://www.w3.org/2000/svg">
	<path d="M199.553819,45.9266748 L199.553819,191.52671 L250,145.686368 L250,0.275544448 L199.553819,45.9266748 Z M199.553819,45.9266748" fill="rgb(100,48,0)"></path>
	<path d="M50.2477335,0.275544448 L0.000406112146,45.8911833 L199.633174,45.8911833 L250,0.275544448 L50.2477335,0.275544448 Z M50.2477335,0.275544448" fill="rgb(121,64,0)"></path>
	<path d="M0,45.8507463 L199.619772,45.8507463 L199.619772,191.522388 L0,191.522388 Z M176.409093,171.461912 C184.079825,140.624802 183.908686,96.2583513 176.070895,66.145728 C141.009627,54.611313 59.9484181,54.2870359 23.3326363,65.4109735 C15.7556228,96.2214051 15.6374537,141.144052 22.9985109,172.180247 C60.2479115,183.010693 141.614731,182.686416 176.409093,171.461912 Z M176.409093,171.461912" fill="rgb(80,36,0)"></path>
</svg>